<mxfile host="app.diagrams.net" agent="Mozilla/5.0 (Windows NT 10.0; Win64; x64) AppleWebKit/537.36 (KHTML, like Gecko) Chrome/137.0.0.0 Safari/537.36" version="27.1.6">
  <diagram id="DKG_uDT8JpBRlkf2Hf8G" name="Page-1">
    <mxGraphModel dx="1281" dy="600" grid="0" gridSize="10" guides="1" tooltips="1" connect="1" arrows="1" fold="1" page="1" pageScale="1" pageWidth="850" pageHeight="1100" math="0" shadow="0">
      <root>
        <mxCell id="0" />
        <mxCell id="1" parent="0" />
        <mxCell id="qYsE7_Hl8JK7W_Uvcwot-33" style="edgeStyle=orthogonalEdgeStyle;rounded=0;orthogonalLoop=1;jettySize=auto;html=1;entryX=0.5;entryY=1;entryDx=0;entryDy=0;" edge="1" parent="1" source="qYsE7_Hl8JK7W_Uvcwot-10" target="qYsE7_Hl8JK7W_Uvcwot-15">
          <mxGeometry relative="1" as="geometry" />
        </mxCell>
        <mxCell id="qYsE7_Hl8JK7W_Uvcwot-10" value="Nodul Master&amp;nbsp;&lt;div&gt;port 9333&lt;/div&gt;" style="rounded=0;whiteSpace=wrap;html=1;align=center;" vertex="1" parent="1">
          <mxGeometry x="365" y="368" width="120" height="60" as="geometry" />
        </mxCell>
        <mxCell id="qYsE7_Hl8JK7W_Uvcwot-11" value="Volum Slave 2&lt;div&gt;port 9324&lt;/div&gt;" style="rounded=0;whiteSpace=wrap;html=1;align=center;" vertex="1" parent="1">
          <mxGeometry x="132" y="522" width="120" height="60" as="geometry" />
        </mxCell>
        <mxCell id="qYsE7_Hl8JK7W_Uvcwot-12" value="Volum Slave 3&lt;div&gt;port 9324&lt;/div&gt;" style="rounded=0;whiteSpace=wrap;html=1;align=center;" vertex="1" parent="1">
          <mxGeometry x="367" y="520" width="120" height="60" as="geometry" />
        </mxCell>
        <mxCell id="qYsE7_Hl8JK7W_Uvcwot-13" value="Volum Slave 4&lt;div&gt;port 9324&lt;/div&gt;" style="rounded=0;whiteSpace=wrap;html=1;align=center;" vertex="1" parent="1">
          <mxGeometry x="602" y="520" width="120" height="60" as="geometry" />
        </mxCell>
        <mxCell id="qYsE7_Hl8JK7W_Uvcwot-15" value="Volum Slave 1&lt;div&gt;port 9324&lt;/div&gt;" style="rounded=0;whiteSpace=wrap;html=1;align=center;" vertex="1" parent="1">
          <mxGeometry x="365" y="245" width="120" height="60" as="geometry" />
        </mxCell>
        <mxCell id="qYsE7_Hl8JK7W_Uvcwot-25" value="" style="endArrow=classic;html=1;rounded=0;exitX=0.5;exitY=0;exitDx=0;exitDy=0;entryX=0.392;entryY=1.007;entryDx=0;entryDy=0;entryPerimeter=0;" edge="1" parent="1" source="qYsE7_Hl8JK7W_Uvcwot-11" target="qYsE7_Hl8JK7W_Uvcwot-10">
          <mxGeometry width="50" height="50" relative="1" as="geometry">
            <mxPoint x="221" y="492" as="sourcePoint" />
            <mxPoint x="271" y="442" as="targetPoint" />
          </mxGeometry>
        </mxCell>
        <mxCell id="qYsE7_Hl8JK7W_Uvcwot-26" value="" style="endArrow=classic;html=1;rounded=0;exitX=0.5;exitY=0;exitDx=0;exitDy=0;entryX=0.5;entryY=1;entryDx=0;entryDy=0;" edge="1" parent="1" source="qYsE7_Hl8JK7W_Uvcwot-12" target="qYsE7_Hl8JK7W_Uvcwot-10">
          <mxGeometry width="50" height="50" relative="1" as="geometry">
            <mxPoint x="415" y="492" as="sourcePoint" />
            <mxPoint x="413" y="410" as="targetPoint" />
          </mxGeometry>
        </mxCell>
        <mxCell id="qYsE7_Hl8JK7W_Uvcwot-29" value="Replicarea datelor" style="edgeLabel;html=1;align=center;verticalAlign=middle;resizable=0;points=[];" vertex="1" connectable="0" parent="qYsE7_Hl8JK7W_Uvcwot-26">
          <mxGeometry x="-0.0503" relative="1" as="geometry">
            <mxPoint as="offset" />
          </mxGeometry>
        </mxCell>
        <mxCell id="qYsE7_Hl8JK7W_Uvcwot-27" value="" style="endArrow=classic;html=1;rounded=0;exitX=0.5;exitY=0;exitDx=0;exitDy=0;" edge="1" parent="1" source="qYsE7_Hl8JK7W_Uvcwot-13">
          <mxGeometry width="50" height="50" relative="1" as="geometry">
            <mxPoint x="622" y="516" as="sourcePoint" />
            <mxPoint x="441" y="428" as="targetPoint" />
          </mxGeometry>
        </mxCell>
        <mxCell id="qYsE7_Hl8JK7W_Uvcwot-28" value="Replicarea datelor" style="edgeLabel;html=1;align=center;verticalAlign=middle;resizable=0;points=[];" vertex="1" connectable="0" parent="qYsE7_Hl8JK7W_Uvcwot-27">
          <mxGeometry x="0.8786" y="-2" relative="1" as="geometry">
            <mxPoint x="108" y="45" as="offset" />
          </mxGeometry>
        </mxCell>
        <mxCell id="qYsE7_Hl8JK7W_Uvcwot-31" value="Replicarea datelor" style="edgeLabel;html=1;align=center;verticalAlign=middle;resizable=0;points=[];" vertex="1" connectable="0" parent="1">
          <mxGeometry x="296" y="476" as="geometry" />
        </mxCell>
      </root>
    </mxGraphModel>
  </diagram>
</mxfile>
